<mxfile host="app.diagrams.net" modified="2023-10-16T17:16:00.230Z" agent="Mozilla/5.0 (Windows NT 10.0; Win64; x64) AppleWebKit/537.36 (KHTML, like Gecko) Chrome/117.0.0.0 Safari/537.36" etag="Y0oG3LYtKH7zF7pAJklo" version="22.0.4" type="github">
  <diagram name="Página-1" id="hSeWg8H-ICYQN-6oGKDd">
    <mxGraphModel dx="4175" dy="1564" grid="1" gridSize="10" guides="1" tooltips="1" connect="1" arrows="1" fold="1" page="1" pageScale="1" pageWidth="827" pageHeight="1169" math="0" shadow="0">
      <root>
        <mxCell id="0" />
        <mxCell id="1" parent="0" />
        <mxCell id="nrIDo2PwZvFl9oS6NiOG-2" value="Empleado" style="whiteSpace=wrap;html=1;align=center;" vertex="1" parent="1">
          <mxGeometry x="-56" y="120" width="100" height="40" as="geometry" />
        </mxCell>
        <mxCell id="nrIDo2PwZvFl9oS6NiOG-3" value="DNI" style="ellipse;whiteSpace=wrap;html=1;align=center;fontStyle=4;" vertex="1" parent="1">
          <mxGeometry x="-56" y="40" width="100" height="40" as="geometry" />
        </mxCell>
        <mxCell id="nrIDo2PwZvFl9oS6NiOG-4" value="Nombre" style="ellipse;whiteSpace=wrap;html=1;align=center;" vertex="1" parent="1">
          <mxGeometry x="70" y="40" width="100" height="40" as="geometry" />
        </mxCell>
        <mxCell id="nrIDo2PwZvFl9oS6NiOG-5" value="Apellidos" style="ellipse;whiteSpace=wrap;html=1;align=center;" vertex="1" parent="1">
          <mxGeometry x="200" y="40" width="100" height="40" as="geometry" />
        </mxCell>
        <mxCell id="nrIDo2PwZvFl9oS6NiOG-6" value="Num_seguriidad_social" style="ellipse;whiteSpace=wrap;html=1;align=center;" vertex="1" parent="1">
          <mxGeometry x="-210" y="30" width="130" height="50" as="geometry" />
        </mxCell>
        <mxCell id="nrIDo2PwZvFl9oS6NiOG-7" value="Telefono_fijo" style="ellipse;whiteSpace=wrap;html=1;align=center;" vertex="1" parent="1">
          <mxGeometry x="-330" y="40" width="100" height="40" as="geometry" />
        </mxCell>
        <mxCell id="nrIDo2PwZvFl9oS6NiOG-8" value="Telefono_movil" style="ellipse;whiteSpace=wrap;html=1;align=center;" vertex="1" parent="1">
          <mxGeometry x="-330" y="115" width="100" height="40" as="geometry" />
        </mxCell>
        <mxCell id="nrIDo2PwZvFl9oS6NiOG-9" value="Cocinero" style="whiteSpace=wrap;html=1;align=center;" vertex="1" parent="1">
          <mxGeometry x="44" y="320" width="100" height="40" as="geometry" />
        </mxCell>
        <mxCell id="nrIDo2PwZvFl9oS6NiOG-10" value="Años_servicio" style="ellipse;whiteSpace=wrap;html=1;align=center;" vertex="1" parent="1">
          <mxGeometry x="160" y="405" width="100" height="40" as="geometry" />
        </mxCell>
        <mxCell id="nrIDo2PwZvFl9oS6NiOG-11" value="Pinche" style="whiteSpace=wrap;html=1;align=center;" vertex="1" parent="1">
          <mxGeometry x="-156" y="320" width="100" height="40" as="geometry" />
        </mxCell>
        <mxCell id="nrIDo2PwZvFl9oS6NiOG-12" value="Fecha_nacimiento" style="ellipse;whiteSpace=wrap;html=1;align=center;" vertex="1" parent="1">
          <mxGeometry x="-300" y="320" width="100" height="40" as="geometry" />
        </mxCell>
        <mxCell id="nrIDo2PwZvFl9oS6NiOG-13" value="" style="ellipse;whiteSpace=wrap;html=1;aspect=fixed;" vertex="1" parent="1">
          <mxGeometry x="-16" y="180" width="20" height="20" as="geometry" />
        </mxCell>
        <mxCell id="nrIDo2PwZvFl9oS6NiOG-14" value="" style="triangle;whiteSpace=wrap;html=1;rotation=89;" vertex="1" parent="1">
          <mxGeometry x="-26" y="200" width="40" height="50" as="geometry" />
        </mxCell>
        <mxCell id="nrIDo2PwZvFl9oS6NiOG-15" value="" style="endArrow=none;html=1;rounded=0;entryX=0.5;entryY=1;entryDx=0;entryDy=0;exitX=0.5;exitY=0;exitDx=0;exitDy=0;" edge="1" parent="1" source="nrIDo2PwZvFl9oS6NiOG-13" target="nrIDo2PwZvFl9oS6NiOG-2">
          <mxGeometry width="50" height="50" relative="1" as="geometry">
            <mxPoint x="390" y="330" as="sourcePoint" />
            <mxPoint x="440" y="280" as="targetPoint" />
          </mxGeometry>
        </mxCell>
        <mxCell id="nrIDo2PwZvFl9oS6NiOG-16" value="" style="endArrow=none;html=1;rounded=0;entryX=0.5;entryY=1;entryDx=0;entryDy=0;exitX=0;exitY=0.5;exitDx=0;exitDy=0;" edge="1" parent="1" source="nrIDo2PwZvFl9oS6NiOG-14" target="nrIDo2PwZvFl9oS6NiOG-13">
          <mxGeometry width="50" height="50" relative="1" as="geometry">
            <mxPoint x="390" y="330" as="sourcePoint" />
            <mxPoint x="440" y="280" as="targetPoint" />
          </mxGeometry>
        </mxCell>
        <mxCell id="nrIDo2PwZvFl9oS6NiOG-17" value="" style="endArrow=none;html=1;rounded=0;exitX=0.5;exitY=0;exitDx=0;exitDy=0;entryX=0.5;entryY=1;entryDx=0;entryDy=0;" edge="1" parent="1" source="nrIDo2PwZvFl9oS6NiOG-11" target="nrIDo2PwZvFl9oS6NiOG-14">
          <mxGeometry width="50" height="50" relative="1" as="geometry">
            <mxPoint x="390" y="330" as="sourcePoint" />
            <mxPoint x="440" y="280" as="targetPoint" />
          </mxGeometry>
        </mxCell>
        <mxCell id="nrIDo2PwZvFl9oS6NiOG-18" value="" style="endArrow=none;html=1;rounded=0;exitX=0.5;exitY=0;exitDx=0;exitDy=0;entryX=0.5;entryY=0;entryDx=0;entryDy=0;" edge="1" parent="1" source="nrIDo2PwZvFl9oS6NiOG-9" target="nrIDo2PwZvFl9oS6NiOG-14">
          <mxGeometry width="50" height="50" relative="1" as="geometry">
            <mxPoint x="-96" y="330" as="sourcePoint" />
            <mxPoint x="-8" y="235" as="targetPoint" />
          </mxGeometry>
        </mxCell>
        <mxCell id="nrIDo2PwZvFl9oS6NiOG-19" value="Plato" style="whiteSpace=wrap;html=1;align=center;" vertex="1" parent="1">
          <mxGeometry x="470" y="120" width="100" height="40" as="geometry" />
        </mxCell>
        <mxCell id="nrIDo2PwZvFl9oS6NiOG-20" value="ID" style="ellipse;whiteSpace=wrap;html=1;align=center;fontStyle=4;" vertex="1" parent="1">
          <mxGeometry x="630" y="120" width="100" height="40" as="geometry" />
        </mxCell>
        <mxCell id="nrIDo2PwZvFl9oS6NiOG-21" value="Nombre" style="ellipse;whiteSpace=wrap;html=1;align=center;" vertex="1" parent="1">
          <mxGeometry x="630" y="40" width="100" height="40" as="geometry" />
        </mxCell>
        <mxCell id="nrIDo2PwZvFl9oS6NiOG-22" value="Precio" style="ellipse;whiteSpace=wrap;html=1;align=center;" vertex="1" parent="1">
          <mxGeometry x="630" y="200" width="100" height="40" as="geometry" />
        </mxCell>
        <mxCell id="nrIDo2PwZvFl9oS6NiOG-23" value="Tipo" style="ellipse;whiteSpace=wrap;html=1;align=center;" vertex="1" parent="1">
          <mxGeometry x="470" y="40" width="100" height="40" as="geometry" />
        </mxCell>
        <mxCell id="nrIDo2PwZvFl9oS6NiOG-24" value="Ingrediente" style="whiteSpace=wrap;html=1;align=center;" vertex="1" parent="1">
          <mxGeometry x="470" y="360" width="100" height="40" as="geometry" />
        </mxCell>
        <mxCell id="nrIDo2PwZvFl9oS6NiOG-25" value="ID" style="ellipse;whiteSpace=wrap;html=1;align=center;fontStyle=4;" vertex="1" parent="1">
          <mxGeometry x="630" y="360" width="100" height="40" as="geometry" />
        </mxCell>
        <mxCell id="nrIDo2PwZvFl9oS6NiOG-26" value="Nombre" style="ellipse;whiteSpace=wrap;html=1;align=center;" vertex="1" parent="1">
          <mxGeometry x="630" y="440" width="100" height="40" as="geometry" />
        </mxCell>
        <mxCell id="nrIDo2PwZvFl9oS6NiOG-27" value="Necesitar" style="shape=rhombus;perimeter=rhombusPerimeter;whiteSpace=wrap;html=1;align=center;" vertex="1" parent="1">
          <mxGeometry x="460" y="230" width="120" height="60" as="geometry" />
        </mxCell>
        <mxCell id="nrIDo2PwZvFl9oS6NiOG-28" value="Cantidad" style="ellipse;whiteSpace=wrap;html=1;align=center;" vertex="1" parent="1">
          <mxGeometry x="314" y="240" width="100" height="40" as="geometry" />
        </mxCell>
        <mxCell id="nrIDo2PwZvFl9oS6NiOG-29" value="" style="endArrow=none;html=1;rounded=0;exitX=1;exitY=0.5;exitDx=0;exitDy=0;entryX=0;entryY=0.5;entryDx=0;entryDy=0;" edge="1" parent="1" source="nrIDo2PwZvFl9oS6NiOG-28" target="nrIDo2PwZvFl9oS6NiOG-27">
          <mxGeometry relative="1" as="geometry">
            <mxPoint x="330" y="300" as="sourcePoint" />
            <mxPoint x="490" y="300" as="targetPoint" />
          </mxGeometry>
        </mxCell>
        <mxCell id="nrIDo2PwZvFl9oS6NiOG-30" value="1, N" style="text;strokeColor=none;fillColor=none;spacingLeft=4;spacingRight=4;overflow=hidden;rotatable=0;points=[[0,0.5],[1,0.5]];portConstraint=eastwest;fontSize=12;whiteSpace=wrap;html=1;" vertex="1" parent="1">
          <mxGeometry x="500" y="320" width="40" height="30" as="geometry" />
        </mxCell>
        <mxCell id="nrIDo2PwZvFl9oS6NiOG-31" value="0, N" style="text;strokeColor=none;fillColor=none;spacingLeft=4;spacingRight=4;overflow=hidden;rotatable=0;points=[[0,0.5],[1,0.5]];portConstraint=eastwest;fontSize=12;whiteSpace=wrap;html=1;" vertex="1" parent="1">
          <mxGeometry x="500" y="175" width="40" height="30" as="geometry" />
        </mxCell>
        <mxCell id="nrIDo2PwZvFl9oS6NiOG-32" value="Almacen" style="whiteSpace=wrap;html=1;align=center;" vertex="1" parent="1">
          <mxGeometry x="-40" y="700" width="100" height="40" as="geometry" />
        </mxCell>
        <mxCell id="nrIDo2PwZvFl9oS6NiOG-33" value="Num_almacen" style="ellipse;whiteSpace=wrap;html=1;align=center;fontStyle=4;" vertex="1" parent="1">
          <mxGeometry x="-40" y="780" width="100" height="40" as="geometry" />
        </mxCell>
        <mxCell id="nrIDo2PwZvFl9oS6NiOG-34" value="Nombre" style="ellipse;whiteSpace=wrap;html=1;align=center;" vertex="1" parent="1">
          <mxGeometry x="-170" y="780" width="100" height="40" as="geometry" />
        </mxCell>
        <mxCell id="nrIDo2PwZvFl9oS6NiOG-35" value="Descripcion" style="ellipse;whiteSpace=wrap;html=1;align=center;" vertex="1" parent="1">
          <mxGeometry x="-170" y="700" width="100" height="40" as="geometry" />
        </mxCell>
        <mxCell id="nrIDo2PwZvFl9oS6NiOG-36" value="Estante" style="whiteSpace=wrap;html=1;align=center;" vertex="1" parent="1">
          <mxGeometry x="470" y="700" width="100" height="40" as="geometry" />
        </mxCell>
        <mxCell id="nrIDo2PwZvFl9oS6NiOG-37" value="ID" style="ellipse;whiteSpace=wrap;html=1;align=center;fontStyle=4;" vertex="1" parent="1">
          <mxGeometry x="470" y="780" width="100" height="40" as="geometry" />
        </mxCell>
        <mxCell id="nrIDo2PwZvFl9oS6NiOG-38" value="&lt;span style=&quot;color: rgb(0, 0, 0); font-family: Helvetica; font-size: 12px; font-style: normal; font-variant-ligatures: normal; font-variant-caps: normal; font-weight: 400; letter-spacing: normal; orphans: 2; text-align: center; text-indent: 0px; text-transform: none; widows: 2; word-spacing: 0px; -webkit-text-stroke-width: 0px; background-color: rgb(251, 251, 251); text-decoration-thickness: initial; text-decoration-style: initial; text-decoration-color: initial; float: none; display: inline !important;&quot;&gt;Identificador&lt;/span&gt;&lt;br&gt;" style="ellipse;whiteSpace=wrap;html=1;align=center;" vertex="1" parent="1">
          <mxGeometry x="630" y="700" width="100" height="40" as="geometry" />
        </mxCell>
        <mxCell id="nrIDo2PwZvFl9oS6NiOG-39" value="Tamaño" style="ellipse;whiteSpace=wrap;html=1;align=center;" vertex="1" parent="1">
          <mxGeometry x="630" y="780" width="100" height="40" as="geometry" />
        </mxCell>
        <mxCell id="nrIDo2PwZvFl9oS6NiOG-40" value="Guardar" style="shape=rhombus;perimeter=rhombusPerimeter;whiteSpace=wrap;html=1;align=center;" vertex="1" parent="1">
          <mxGeometry x="460" y="510" width="120" height="60" as="geometry" />
        </mxCell>
        <mxCell id="nrIDo2PwZvFl9oS6NiOG-41" value="0, 1" style="text;strokeColor=none;fillColor=none;spacingLeft=4;spacingRight=4;overflow=hidden;rotatable=0;points=[[0,0.5],[1,0.5]];portConstraint=eastwest;fontSize=12;whiteSpace=wrap;html=1;" vertex="1" parent="1">
          <mxGeometry x="500" y="650" width="40" height="30" as="geometry" />
        </mxCell>
        <mxCell id="nrIDo2PwZvFl9oS6NiOG-42" value="0, N" style="text;strokeColor=none;fillColor=none;spacingLeft=4;spacingRight=4;overflow=hidden;rotatable=0;points=[[0,0.5],[1,0.5]];portConstraint=eastwest;fontSize=12;whiteSpace=wrap;html=1;" vertex="1" parent="1">
          <mxGeometry x="500" y="420" width="40" height="30" as="geometry" />
        </mxCell>
        <mxCell id="nrIDo2PwZvFl9oS6NiOG-43" value="Ubicar" style="shape=rhombus;perimeter=rhombusPerimeter;whiteSpace=wrap;html=1;align=center;" vertex="1" parent="1">
          <mxGeometry x="210" y="690" width="120" height="60" as="geometry" />
        </mxCell>
        <mxCell id="nrIDo2PwZvFl9oS6NiOG-44" value="1, 1" style="text;strokeColor=none;fillColor=none;spacingLeft=4;spacingRight=4;overflow=hidden;rotatable=0;points=[[0,0.5],[1,0.5]];portConstraint=eastwest;fontSize=12;whiteSpace=wrap;html=1;" vertex="1" parent="1">
          <mxGeometry x="80" y="705" width="40" height="30" as="geometry" />
        </mxCell>
        <mxCell id="nrIDo2PwZvFl9oS6NiOG-45" value="1, N" style="text;strokeColor=none;fillColor=none;spacingLeft=4;spacingRight=4;overflow=hidden;rotatable=0;points=[[0,0.5],[1,0.5]];portConstraint=eastwest;fontSize=12;whiteSpace=wrap;html=1;" vertex="1" parent="1">
          <mxGeometry x="414" y="705" width="40" height="30" as="geometry" />
        </mxCell>
        <mxCell id="nrIDo2PwZvFl9oS6NiOG-46" value="Preparar" style="shape=rhombus;perimeter=rhombusPerimeter;whiteSpace=wrap;html=1;align=center;" vertex="1" parent="1">
          <mxGeometry x="180" y="150" width="120" height="60" as="geometry" />
        </mxCell>
        <mxCell id="nrIDo2PwZvFl9oS6NiOG-47" value="0, N" style="text;strokeColor=none;fillColor=none;spacingLeft=4;spacingRight=4;overflow=hidden;rotatable=0;points=[[0,0.5],[1,0.5]];portConstraint=eastwest;fontSize=12;whiteSpace=wrap;html=1;" vertex="1" parent="1">
          <mxGeometry x="160" y="325" width="40" height="30" as="geometry" />
        </mxCell>
        <mxCell id="nrIDo2PwZvFl9oS6NiOG-48" value="1, N" style="text;strokeColor=none;fillColor=none;spacingLeft=4;spacingRight=4;overflow=hidden;rotatable=0;points=[[0,0.5],[1,0.5]];portConstraint=eastwest;fontSize=12;whiteSpace=wrap;html=1;" vertex="1" parent="1">
          <mxGeometry x="414" y="125" width="40" height="30" as="geometry" />
        </mxCell>
        <mxCell id="nrIDo2PwZvFl9oS6NiOG-49" value="Responsabilizar" style="shape=rhombus;perimeter=rhombusPerimeter;whiteSpace=wrap;html=1;align=center;" vertex="1" parent="1">
          <mxGeometry x="-106" y="405" width="120" height="60" as="geometry" />
        </mxCell>
        <mxCell id="nrIDo2PwZvFl9oS6NiOG-50" value="1, N" style="text;strokeColor=none;fillColor=none;spacingLeft=4;spacingRight=4;overflow=hidden;rotatable=0;points=[[0,0.5],[1,0.5]];portConstraint=eastwest;fontSize=12;whiteSpace=wrap;html=1;" vertex="1" parent="1">
          <mxGeometry x="50" y="375" width="40" height="30" as="geometry" />
        </mxCell>
        <mxCell id="nrIDo2PwZvFl9oS6NiOG-51" value="" style="endArrow=none;html=1;rounded=0;exitX=0.5;exitY=1;exitDx=0;exitDy=0;entryX=0;entryY=0.5;entryDx=0;entryDy=0;exitPerimeter=0;" edge="1" parent="1" source="nrIDo2PwZvFl9oS6NiOG-53" target="nrIDo2PwZvFl9oS6NiOG-49">
          <mxGeometry relative="1" as="geometry">
            <mxPoint x="330" y="260" as="sourcePoint" />
            <mxPoint x="490" y="260" as="targetPoint" />
            <Array as="points">
              <mxPoint x="-131" y="435" />
            </Array>
          </mxGeometry>
        </mxCell>
        <mxCell id="nrIDo2PwZvFl9oS6NiOG-52" value="" style="endArrow=none;html=1;rounded=0;exitX=0.25;exitY=1;exitDx=0;exitDy=0;entryX=0.5;entryY=0.033;entryDx=0;entryDy=0;entryPerimeter=0;" edge="1" parent="1" source="nrIDo2PwZvFl9oS6NiOG-11" target="nrIDo2PwZvFl9oS6NiOG-53">
          <mxGeometry relative="1" as="geometry">
            <mxPoint x="-131" y="360" as="sourcePoint" />
            <mxPoint x="-106" y="435" as="targetPoint" />
            <Array as="points" />
          </mxGeometry>
        </mxCell>
        <mxCell id="nrIDo2PwZvFl9oS6NiOG-53" value="1, N" style="text;strokeColor=none;fillColor=none;spacingLeft=4;spacingRight=4;overflow=hidden;rotatable=0;points=[[0,0.5],[1,0.5]];portConstraint=eastwest;fontSize=12;whiteSpace=wrap;html=1;" vertex="1" parent="1">
          <mxGeometry x="-150" y="380" width="40" height="30" as="geometry" />
        </mxCell>
        <mxCell id="nrIDo2PwZvFl9oS6NiOG-54" value="" style="endArrow=none;html=1;rounded=0;exitX=1;exitY=0.5;exitDx=0;exitDy=0;entryX=0.5;entryY=1.167;entryDx=0;entryDy=0;entryPerimeter=0;" edge="1" parent="1" source="nrIDo2PwZvFl9oS6NiOG-49" target="nrIDo2PwZvFl9oS6NiOG-50">
          <mxGeometry relative="1" as="geometry">
            <mxPoint x="330" y="260" as="sourcePoint" />
            <mxPoint x="490" y="260" as="targetPoint" />
            <Array as="points">
              <mxPoint x="70" y="435" />
            </Array>
          </mxGeometry>
        </mxCell>
        <mxCell id="nrIDo2PwZvFl9oS6NiOG-55" value="" style="endArrow=none;html=1;rounded=0;exitX=0.5;exitY=-0.067;exitDx=0;exitDy=0;exitPerimeter=0;entryX=0.25;entryY=1;entryDx=0;entryDy=0;" edge="1" parent="1" source="nrIDo2PwZvFl9oS6NiOG-50" target="nrIDo2PwZvFl9oS6NiOG-9">
          <mxGeometry relative="1" as="geometry">
            <mxPoint x="330" y="260" as="sourcePoint" />
            <mxPoint x="490" y="260" as="targetPoint" />
          </mxGeometry>
        </mxCell>
        <mxCell id="nrIDo2PwZvFl9oS6NiOG-56" value="" style="endArrow=none;html=1;rounded=0;exitX=1;exitY=0.5;exitDx=0;exitDy=0;entryX=0;entryY=0.5;entryDx=0;entryDy=0;" edge="1" parent="1" source="nrIDo2PwZvFl9oS6NiOG-9" target="nrIDo2PwZvFl9oS6NiOG-47">
          <mxGeometry relative="1" as="geometry">
            <mxPoint x="330" y="260" as="sourcePoint" />
            <mxPoint x="490" y="260" as="targetPoint" />
          </mxGeometry>
        </mxCell>
        <mxCell id="nrIDo2PwZvFl9oS6NiOG-57" value="" style="endArrow=none;html=1;rounded=0;exitX=0;exitY=0.5;exitDx=0;exitDy=0;entryX=0.5;entryY=-0.067;entryDx=0;entryDy=0;entryPerimeter=0;" edge="1" parent="1" source="nrIDo2PwZvFl9oS6NiOG-46" target="nrIDo2PwZvFl9oS6NiOG-47">
          <mxGeometry relative="1" as="geometry">
            <mxPoint x="330" y="260" as="sourcePoint" />
            <mxPoint x="490" y="260" as="targetPoint" />
          </mxGeometry>
        </mxCell>
        <mxCell id="nrIDo2PwZvFl9oS6NiOG-58" value="" style="endArrow=none;html=1;rounded=0;entryX=0;entryY=0.5;entryDx=0;entryDy=0;exitX=1;exitY=0.5;exitDx=0;exitDy=0;" edge="1" parent="1" source="nrIDo2PwZvFl9oS6NiOG-46" target="nrIDo2PwZvFl9oS6NiOG-48">
          <mxGeometry relative="1" as="geometry">
            <mxPoint x="330" y="260" as="sourcePoint" />
            <mxPoint x="490" y="260" as="targetPoint" />
            <Array as="points">
              <mxPoint x="300" y="140" />
            </Array>
          </mxGeometry>
        </mxCell>
        <mxCell id="nrIDo2PwZvFl9oS6NiOG-59" value="" style="endArrow=none;html=1;rounded=0;exitX=1;exitY=0.5;exitDx=0;exitDy=0;entryX=0;entryY=0.5;entryDx=0;entryDy=0;" edge="1" parent="1" source="nrIDo2PwZvFl9oS6NiOG-48" target="nrIDo2PwZvFl9oS6NiOG-19">
          <mxGeometry relative="1" as="geometry">
            <mxPoint x="330" y="260" as="sourcePoint" />
            <mxPoint x="490" y="260" as="targetPoint" />
          </mxGeometry>
        </mxCell>
        <mxCell id="nrIDo2PwZvFl9oS6NiOG-60" value="" style="endArrow=none;html=1;rounded=0;exitX=0.5;exitY=0;exitDx=0;exitDy=0;entryX=0.5;entryY=1;entryDx=0;entryDy=0;entryPerimeter=0;" edge="1" parent="1" source="nrIDo2PwZvFl9oS6NiOG-27" target="nrIDo2PwZvFl9oS6NiOG-31">
          <mxGeometry relative="1" as="geometry">
            <mxPoint x="340" y="270" as="sourcePoint" />
            <mxPoint x="500" y="270" as="targetPoint" />
          </mxGeometry>
        </mxCell>
        <mxCell id="nrIDo2PwZvFl9oS6NiOG-61" value="" style="endArrow=none;html=1;rounded=0;exitX=0.5;exitY=1;exitDx=0;exitDy=0;entryX=0.5;entryY=0;entryDx=0;entryDy=0;entryPerimeter=0;" edge="1" parent="1" source="nrIDo2PwZvFl9oS6NiOG-19" target="nrIDo2PwZvFl9oS6NiOG-31">
          <mxGeometry relative="1" as="geometry">
            <mxPoint x="350" y="280" as="sourcePoint" />
            <mxPoint x="510" y="280" as="targetPoint" />
          </mxGeometry>
        </mxCell>
        <mxCell id="nrIDo2PwZvFl9oS6NiOG-62" value="" style="endArrow=none;html=1;rounded=0;exitX=0.5;exitY=0;exitDx=0;exitDy=0;entryX=0.5;entryY=1;entryDx=0;entryDy=0;entryPerimeter=0;" edge="1" parent="1" source="nrIDo2PwZvFl9oS6NiOG-24" target="nrIDo2PwZvFl9oS6NiOG-30">
          <mxGeometry relative="1" as="geometry">
            <mxPoint x="330" y="260" as="sourcePoint" />
            <mxPoint x="490" y="260" as="targetPoint" />
          </mxGeometry>
        </mxCell>
        <mxCell id="nrIDo2PwZvFl9oS6NiOG-63" value="" style="endArrow=none;html=1;rounded=0;entryX=0.5;entryY=1;entryDx=0;entryDy=0;exitX=0.5;exitY=0;exitDx=0;exitDy=0;exitPerimeter=0;" edge="1" parent="1" source="nrIDo2PwZvFl9oS6NiOG-30" target="nrIDo2PwZvFl9oS6NiOG-27">
          <mxGeometry relative="1" as="geometry">
            <mxPoint x="360" y="290" as="sourcePoint" />
            <mxPoint x="490" y="310" as="targetPoint" />
          </mxGeometry>
        </mxCell>
        <mxCell id="nrIDo2PwZvFl9oS6NiOG-64" value="" style="endArrow=none;html=1;rounded=0;exitX=0.5;exitY=0;exitDx=0;exitDy=0;exitPerimeter=0;entryX=0.5;entryY=1;entryDx=0;entryDy=0;" edge="1" parent="1" source="nrIDo2PwZvFl9oS6NiOG-42" target="nrIDo2PwZvFl9oS6NiOG-24">
          <mxGeometry relative="1" as="geometry">
            <mxPoint x="330" y="260" as="sourcePoint" />
            <mxPoint x="490" y="260" as="targetPoint" />
          </mxGeometry>
        </mxCell>
        <mxCell id="nrIDo2PwZvFl9oS6NiOG-65" value="" style="endArrow=none;html=1;rounded=0;exitX=0.5;exitY=0;exitDx=0;exitDy=0;entryX=0.5;entryY=1.1;entryDx=0;entryDy=0;entryPerimeter=0;" edge="1" parent="1" source="nrIDo2PwZvFl9oS6NiOG-40" target="nrIDo2PwZvFl9oS6NiOG-42">
          <mxGeometry relative="1" as="geometry">
            <mxPoint x="370" y="300" as="sourcePoint" />
            <mxPoint x="480" y="460" as="targetPoint" />
          </mxGeometry>
        </mxCell>
        <mxCell id="nrIDo2PwZvFl9oS6NiOG-66" value="" style="endArrow=none;html=1;rounded=0;exitX=0.5;exitY=1;exitDx=0;exitDy=0;entryX=0.5;entryY=0;entryDx=0;entryDy=0;entryPerimeter=0;" edge="1" parent="1" source="nrIDo2PwZvFl9oS6NiOG-40" target="nrIDo2PwZvFl9oS6NiOG-41">
          <mxGeometry relative="1" as="geometry">
            <mxPoint x="330" y="660" as="sourcePoint" />
            <mxPoint x="490" y="660" as="targetPoint" />
          </mxGeometry>
        </mxCell>
        <mxCell id="nrIDo2PwZvFl9oS6NiOG-67" value="" style="endArrow=none;html=1;rounded=0;exitX=0.5;exitY=0;exitDx=0;exitDy=0;entryX=0.5;entryY=1;entryDx=0;entryDy=0;entryPerimeter=0;" edge="1" parent="1" source="nrIDo2PwZvFl9oS6NiOG-36" target="nrIDo2PwZvFl9oS6NiOG-41">
          <mxGeometry relative="1" as="geometry">
            <mxPoint x="380" y="310" as="sourcePoint" />
            <mxPoint x="540" y="310" as="targetPoint" />
          </mxGeometry>
        </mxCell>
        <mxCell id="nrIDo2PwZvFl9oS6NiOG-68" value="" style="endArrow=none;html=1;rounded=0;exitX=1;exitY=0.5;exitDx=0;exitDy=0;entryX=0;entryY=0.5;entryDx=0;entryDy=0;" edge="1" parent="1" source="nrIDo2PwZvFl9oS6NiOG-45" target="nrIDo2PwZvFl9oS6NiOG-36">
          <mxGeometry relative="1" as="geometry">
            <mxPoint x="390" y="320" as="sourcePoint" />
            <mxPoint x="550" y="320" as="targetPoint" />
          </mxGeometry>
        </mxCell>
        <mxCell id="nrIDo2PwZvFl9oS6NiOG-69" value="" style="endArrow=none;html=1;rounded=0;exitX=1;exitY=0.5;exitDx=0;exitDy=0;entryX=0;entryY=0.5;entryDx=0;entryDy=0;" edge="1" parent="1" source="nrIDo2PwZvFl9oS6NiOG-43" target="nrIDo2PwZvFl9oS6NiOG-45">
          <mxGeometry relative="1" as="geometry">
            <mxPoint x="400" y="330" as="sourcePoint" />
            <mxPoint x="560" y="330" as="targetPoint" />
          </mxGeometry>
        </mxCell>
        <mxCell id="nrIDo2PwZvFl9oS6NiOG-70" value="" style="endArrow=none;html=1;rounded=0;exitX=0;exitY=0.5;exitDx=0;exitDy=0;entryX=1;entryY=0.5;entryDx=0;entryDy=0;" edge="1" parent="1" source="nrIDo2PwZvFl9oS6NiOG-43" target="nrIDo2PwZvFl9oS6NiOG-44">
          <mxGeometry relative="1" as="geometry">
            <mxPoint x="410" y="340" as="sourcePoint" />
            <mxPoint x="570" y="340" as="targetPoint" />
          </mxGeometry>
        </mxCell>
        <mxCell id="nrIDo2PwZvFl9oS6NiOG-71" value="" style="endArrow=none;html=1;rounded=0;exitX=0;exitY=0.5;exitDx=0;exitDy=0;entryX=1;entryY=0.5;entryDx=0;entryDy=0;" edge="1" parent="1" source="nrIDo2PwZvFl9oS6NiOG-44" target="nrIDo2PwZvFl9oS6NiOG-32">
          <mxGeometry relative="1" as="geometry">
            <mxPoint x="420" y="350" as="sourcePoint" />
            <mxPoint x="580" y="350" as="targetPoint" />
          </mxGeometry>
        </mxCell>
        <mxCell id="nrIDo2PwZvFl9oS6NiOG-72" value="" style="endArrow=none;html=1;rounded=0;exitX=1;exitY=0.5;exitDx=0;exitDy=0;entryX=0;entryY=0.5;entryDx=0;entryDy=0;" edge="1" parent="1" source="nrIDo2PwZvFl9oS6NiOG-7" target="nrIDo2PwZvFl9oS6NiOG-2">
          <mxGeometry relative="1" as="geometry">
            <mxPoint x="280" y="340" as="sourcePoint" />
            <mxPoint x="410" y="370" as="targetPoint" />
          </mxGeometry>
        </mxCell>
        <mxCell id="nrIDo2PwZvFl9oS6NiOG-73" value="" style="endArrow=none;html=1;rounded=0;exitX=1;exitY=1;exitDx=0;exitDy=0;entryX=0;entryY=0;entryDx=0;entryDy=0;" edge="1" parent="1" source="nrIDo2PwZvFl9oS6NiOG-6" target="nrIDo2PwZvFl9oS6NiOG-2">
          <mxGeometry relative="1" as="geometry">
            <mxPoint x="-220" y="70" as="sourcePoint" />
            <mxPoint x="-46" y="150" as="targetPoint" />
          </mxGeometry>
        </mxCell>
        <mxCell id="nrIDo2PwZvFl9oS6NiOG-74" value="" style="endArrow=none;html=1;rounded=0;exitX=0.5;exitY=1;exitDx=0;exitDy=0;entryX=0.5;entryY=0;entryDx=0;entryDy=0;" edge="1" parent="1" source="nrIDo2PwZvFl9oS6NiOG-3" target="nrIDo2PwZvFl9oS6NiOG-2">
          <mxGeometry relative="1" as="geometry">
            <mxPoint x="-210" y="80" as="sourcePoint" />
            <mxPoint x="-36" y="160" as="targetPoint" />
          </mxGeometry>
        </mxCell>
        <mxCell id="nrIDo2PwZvFl9oS6NiOG-75" value="" style="endArrow=none;html=1;rounded=0;exitX=0.5;exitY=1;exitDx=0;exitDy=0;entryX=0.75;entryY=0;entryDx=0;entryDy=0;" edge="1" parent="1" source="nrIDo2PwZvFl9oS6NiOG-4" target="nrIDo2PwZvFl9oS6NiOG-2">
          <mxGeometry relative="1" as="geometry">
            <mxPoint x="4" y="90" as="sourcePoint" />
            <mxPoint x="4" y="130" as="targetPoint" />
          </mxGeometry>
        </mxCell>
        <mxCell id="nrIDo2PwZvFl9oS6NiOG-76" value="" style="endArrow=none;html=1;rounded=0;exitX=0;exitY=1;exitDx=0;exitDy=0;entryX=1;entryY=0.25;entryDx=0;entryDy=0;" edge="1" parent="1" source="nrIDo2PwZvFl9oS6NiOG-5" target="nrIDo2PwZvFl9oS6NiOG-2">
          <mxGeometry relative="1" as="geometry">
            <mxPoint x="14" y="100" as="sourcePoint" />
            <mxPoint x="14" y="140" as="targetPoint" />
          </mxGeometry>
        </mxCell>
        <mxCell id="nrIDo2PwZvFl9oS6NiOG-77" value="" style="endArrow=none;html=1;rounded=0;exitX=1;exitY=0.5;exitDx=0;exitDy=0;entryX=0;entryY=0.75;entryDx=0;entryDy=0;" edge="1" parent="1" source="nrIDo2PwZvFl9oS6NiOG-8" target="nrIDo2PwZvFl9oS6NiOG-2">
          <mxGeometry relative="1" as="geometry">
            <mxPoint x="24" y="110" as="sourcePoint" />
            <mxPoint x="24" y="150" as="targetPoint" />
          </mxGeometry>
        </mxCell>
        <mxCell id="nrIDo2PwZvFl9oS6NiOG-78" value="" style="endArrow=none;html=1;rounded=0;exitX=1;exitY=0.5;exitDx=0;exitDy=0;entryX=0;entryY=0.5;entryDx=0;entryDy=0;" edge="1" parent="1" source="nrIDo2PwZvFl9oS6NiOG-12" target="nrIDo2PwZvFl9oS6NiOG-11">
          <mxGeometry relative="1" as="geometry">
            <mxPoint x="34" y="120" as="sourcePoint" />
            <mxPoint x="34" y="160" as="targetPoint" />
          </mxGeometry>
        </mxCell>
        <mxCell id="nrIDo2PwZvFl9oS6NiOG-79" value="" style="endArrow=none;html=1;rounded=0;exitX=0;exitY=0;exitDx=0;exitDy=0;entryX=0.75;entryY=1;entryDx=0;entryDy=0;" edge="1" parent="1" source="nrIDo2PwZvFl9oS6NiOG-10" target="nrIDo2PwZvFl9oS6NiOG-9">
          <mxGeometry relative="1" as="geometry">
            <mxPoint x="44" y="130" as="sourcePoint" />
            <mxPoint x="44" y="170" as="targetPoint" />
          </mxGeometry>
        </mxCell>
        <mxCell id="nrIDo2PwZvFl9oS6NiOG-80" value="" style="endArrow=none;html=1;rounded=0;exitX=0;exitY=0.5;exitDx=0;exitDy=0;entryX=1;entryY=0;entryDx=0;entryDy=0;" edge="1" parent="1" source="nrIDo2PwZvFl9oS6NiOG-21" target="nrIDo2PwZvFl9oS6NiOG-19">
          <mxGeometry relative="1" as="geometry">
            <mxPoint x="54" y="140" as="sourcePoint" />
            <mxPoint x="54" y="180" as="targetPoint" />
          </mxGeometry>
        </mxCell>
        <mxCell id="nrIDo2PwZvFl9oS6NiOG-81" value="" style="endArrow=none;html=1;rounded=0;exitX=0.5;exitY=1;exitDx=0;exitDy=0;entryX=0.5;entryY=0;entryDx=0;entryDy=0;" edge="1" parent="1" source="nrIDo2PwZvFl9oS6NiOG-23" target="nrIDo2PwZvFl9oS6NiOG-19">
          <mxGeometry relative="1" as="geometry">
            <mxPoint x="64" y="150" as="sourcePoint" />
            <mxPoint x="64" y="190" as="targetPoint" />
          </mxGeometry>
        </mxCell>
        <mxCell id="nrIDo2PwZvFl9oS6NiOG-82" value="" style="endArrow=none;html=1;rounded=0;exitX=0;exitY=0.5;exitDx=0;exitDy=0;entryX=1;entryY=0.5;entryDx=0;entryDy=0;" edge="1" parent="1" source="nrIDo2PwZvFl9oS6NiOG-20" target="nrIDo2PwZvFl9oS6NiOG-19">
          <mxGeometry relative="1" as="geometry">
            <mxPoint x="74" y="160" as="sourcePoint" />
            <mxPoint x="74" y="200" as="targetPoint" />
          </mxGeometry>
        </mxCell>
        <mxCell id="nrIDo2PwZvFl9oS6NiOG-83" value="" style="endArrow=none;html=1;rounded=0;exitX=0;exitY=0.5;exitDx=0;exitDy=0;entryX=1;entryY=1;entryDx=0;entryDy=0;" edge="1" parent="1" source="nrIDo2PwZvFl9oS6NiOG-22" target="nrIDo2PwZvFl9oS6NiOG-19">
          <mxGeometry relative="1" as="geometry">
            <mxPoint x="84" y="170" as="sourcePoint" />
            <mxPoint x="84" y="210" as="targetPoint" />
          </mxGeometry>
        </mxCell>
        <mxCell id="nrIDo2PwZvFl9oS6NiOG-84" value="" style="endArrow=none;html=1;rounded=0;exitX=0;exitY=0.5;exitDx=0;exitDy=0;entryX=1;entryY=0.5;entryDx=0;entryDy=0;" edge="1" parent="1" source="nrIDo2PwZvFl9oS6NiOG-25" target="nrIDo2PwZvFl9oS6NiOG-24">
          <mxGeometry relative="1" as="geometry">
            <mxPoint x="94" y="180" as="sourcePoint" />
            <mxPoint x="94" y="220" as="targetPoint" />
          </mxGeometry>
        </mxCell>
        <mxCell id="nrIDo2PwZvFl9oS6NiOG-85" value="" style="endArrow=none;html=1;rounded=0;exitX=0;exitY=0.5;exitDx=0;exitDy=0;entryX=1;entryY=1;entryDx=0;entryDy=0;" edge="1" parent="1" source="nrIDo2PwZvFl9oS6NiOG-26" target="nrIDo2PwZvFl9oS6NiOG-24">
          <mxGeometry relative="1" as="geometry">
            <mxPoint x="104" y="190" as="sourcePoint" />
            <mxPoint x="104" y="230" as="targetPoint" />
          </mxGeometry>
        </mxCell>
        <mxCell id="nrIDo2PwZvFl9oS6NiOG-86" value="" style="endArrow=none;html=1;rounded=0;exitX=0;exitY=0.5;exitDx=0;exitDy=0;entryX=1;entryY=0.5;entryDx=0;entryDy=0;" edge="1" parent="1" source="nrIDo2PwZvFl9oS6NiOG-38" target="nrIDo2PwZvFl9oS6NiOG-36">
          <mxGeometry relative="1" as="geometry">
            <mxPoint x="114" y="200" as="sourcePoint" />
            <mxPoint x="114" y="240" as="targetPoint" />
          </mxGeometry>
        </mxCell>
        <mxCell id="nrIDo2PwZvFl9oS6NiOG-87" value="" style="endArrow=none;html=1;rounded=0;exitX=1;exitY=1;exitDx=0;exitDy=0;entryX=0;entryY=0;entryDx=0;entryDy=0;" edge="1" parent="1" source="nrIDo2PwZvFl9oS6NiOG-36" target="nrIDo2PwZvFl9oS6NiOG-39">
          <mxGeometry relative="1" as="geometry">
            <mxPoint x="124" y="210" as="sourcePoint" />
            <mxPoint x="124" y="250" as="targetPoint" />
          </mxGeometry>
        </mxCell>
        <mxCell id="nrIDo2PwZvFl9oS6NiOG-88" value="" style="endArrow=none;html=1;rounded=0;exitX=0.5;exitY=0;exitDx=0;exitDy=0;entryX=0.5;entryY=1;entryDx=0;entryDy=0;" edge="1" parent="1" source="nrIDo2PwZvFl9oS6NiOG-37" target="nrIDo2PwZvFl9oS6NiOG-36">
          <mxGeometry relative="1" as="geometry">
            <mxPoint x="580" y="750" as="sourcePoint" />
            <mxPoint x="655" y="796" as="targetPoint" />
          </mxGeometry>
        </mxCell>
        <mxCell id="nrIDo2PwZvFl9oS6NiOG-89" value="" style="endArrow=none;html=1;rounded=0;exitX=0.5;exitY=0;exitDx=0;exitDy=0;entryX=0.5;entryY=1;entryDx=0;entryDy=0;" edge="1" parent="1" source="nrIDo2PwZvFl9oS6NiOG-33" target="nrIDo2PwZvFl9oS6NiOG-32">
          <mxGeometry relative="1" as="geometry">
            <mxPoint x="590" y="760" as="sourcePoint" />
            <mxPoint x="665" y="806" as="targetPoint" />
          </mxGeometry>
        </mxCell>
        <mxCell id="nrIDo2PwZvFl9oS6NiOG-90" value="" style="endArrow=none;html=1;rounded=0;exitX=1;exitY=0;exitDx=0;exitDy=0;entryX=0;entryY=1;entryDx=0;entryDy=0;" edge="1" parent="1" source="nrIDo2PwZvFl9oS6NiOG-34" target="nrIDo2PwZvFl9oS6NiOG-32">
          <mxGeometry relative="1" as="geometry">
            <mxPoint x="600" y="770" as="sourcePoint" />
            <mxPoint x="675" y="816" as="targetPoint" />
          </mxGeometry>
        </mxCell>
        <mxCell id="nrIDo2PwZvFl9oS6NiOG-91" value="" style="endArrow=none;html=1;rounded=0;exitX=1;exitY=0.5;exitDx=0;exitDy=0;entryX=0;entryY=0.5;entryDx=0;entryDy=0;" edge="1" parent="1" source="nrIDo2PwZvFl9oS6NiOG-35" target="nrIDo2PwZvFl9oS6NiOG-32">
          <mxGeometry relative="1" as="geometry">
            <mxPoint x="610" y="780" as="sourcePoint" />
            <mxPoint x="685" y="826" as="targetPoint" />
          </mxGeometry>
        </mxCell>
        <mxCell id="nrIDo2PwZvFl9oS6NiOG-92" value="Total_ingredientes" style="ellipse;whiteSpace=wrap;html=1;align=center;" vertex="1" parent="1">
          <mxGeometry x="630" y="280" width="100" height="40" as="geometry" />
        </mxCell>
        <mxCell id="nrIDo2PwZvFl9oS6NiOG-93" value="" style="endArrow=none;html=1;rounded=0;exitX=1;exitY=0;exitDx=0;exitDy=0;entryX=0;entryY=0.5;entryDx=0;entryDy=0;" edge="1" parent="1" source="nrIDo2PwZvFl9oS6NiOG-24" target="nrIDo2PwZvFl9oS6NiOG-92">
          <mxGeometry relative="1" as="geometry">
            <mxPoint x="530" y="520" as="sourcePoint" />
            <mxPoint x="530" y="463" as="targetPoint" />
          </mxGeometry>
        </mxCell>
        <mxCell id="nrIDo2PwZvFl9oS6NiOG-94" value="0, N" style="text;strokeColor=none;fillColor=none;spacingLeft=4;spacingRight=4;overflow=hidden;rotatable=0;points=[[0,0.5],[1,0.5]];portConstraint=eastwest;fontSize=12;whiteSpace=wrap;html=1;" vertex="1" parent="1">
          <mxGeometry x="-140" y="290" width="40" height="30" as="geometry" />
        </mxCell>
        <mxCell id="nrIDo2PwZvFl9oS6NiOG-95" value="1, N" style="text;strokeColor=none;fillColor=none;spacingLeft=4;spacingRight=4;overflow=hidden;rotatable=0;points=[[0,0.5],[1,0.5]];portConstraint=eastwest;fontSize=12;whiteSpace=wrap;html=1;" vertex="1" parent="1">
          <mxGeometry x="10" y="160" width="40" height="30" as="geometry" />
        </mxCell>
        <mxCell id="nrIDo2PwZvFl9oS6NiOG-96" value="0, N" style="text;strokeColor=none;fillColor=none;spacingLeft=4;spacingRight=4;overflow=hidden;rotatable=0;points=[[0,0.5],[1,0.5]];portConstraint=eastwest;fontSize=12;whiteSpace=wrap;html=1;" vertex="1" parent="1">
          <mxGeometry x="90" y="290" width="40" height="30" as="geometry" />
        </mxCell>
      </root>
    </mxGraphModel>
  </diagram>
</mxfile>
